<svg data-v-423bf9ae="" xmlns="http://www.w3.org/2000/svg" viewBox="0 0 868 90" class="iconLeft"><!----><!----><!----><g data-v-423bf9ae="" id="e9fd5468-38f0-4dba-b6eb-edfd02bc727f" fill="black" transform="matrix(5.830903811703725,0,0,5.830903811703725,270.6560050518217,-5.349852689523779)"><path d="M8.01 13.64L7.06 10.92L2.74 10.92L1.80 13.64L0.54 13.64L4.27 3.63L5.69 3.63L9.42 13.64L8.01 13.64ZM3.10 9.88L6.69 9.88L5.36 5.97L4.97 4.57L4.83 4.57L4.44 5.97L3.10 9.88ZM12.79 4.69L12.79 13.64L11.45 13.64L11.45 3.63L14.18 3.63L14.18 3.63Q14.98 3.63 15.66 3.83L15.66 3.83L15.66 3.83Q16.34 4.03 16.84 4.42L16.84 4.42L16.84 4.42Q17.34 4.81 17.63 5.39L17.63 5.39L17.63 5.39Q17.92 5.97 17.92 6.73L17.92 6.73L17.92 6.73Q17.92 7.27 17.77 7.73L17.77 7.73L17.77 7.73Q17.63 8.19 17.37 8.57L17.37 8.57L17.37 8.57Q17.12 8.94 16.78 9.23L16.78 9.23L16.78 9.23Q16.43 9.52 16.04 9.72L16.04 9.72L16.04 9.72Q15.64 9.92 15.21 10.02L15.21 10.02L15.21 10.02Q14.78 10.12 14.35 10.12L14.35 10.12L14.35 10.12Q14.27 10.12 14.17 10.12L14.17 10.12L14.17 10.12Q14.08 10.12 13.94 10.10L13.94 10.10L14.03 9.07L14.03 9.07Q14.16 9.09 14.25 9.10L14.25 9.10L14.25 9.10Q14.33 9.10 14.42 9.10L14.42 9.10L14.42 9.10Q14.86 9.10 15.25 8.97L15.25 8.97L15.25 8.97Q15.63 8.83 15.92 8.56L15.92 8.56L15.92 8.56Q16.21 8.29 16.38 7.87L16.38 7.87L16.38 7.87Q16.55 7.46 16.55 6.89L16.55 6.89L16.55 6.89Q16.55 6.31 16.37 5.89L16.37 5.89L16.37 5.89Q16.19 5.48 15.85 5.21L15.85 5.21L15.85 5.21Q15.51 4.94 15.02 4.82L15.02 4.82L15.02 4.82Q14.53 4.69 13.92 4.69L13.92 4.69L12.79 4.69ZM21.41 4.69L21.41 13.64L20.07 13.64L20.07 3.63L22.80 3.63L22.80 3.63Q23.60 3.63 24.28 3.83L24.28 3.83L24.28 3.83Q24.96 4.03 25.46 4.42L25.46 4.42L25.46 4.42Q25.96 4.81 26.25 5.39L26.25 5.39L26.25 5.39Q26.54 5.97 26.54 6.73L26.54 6.73L26.54 6.73Q26.54 7.27 26.39 7.73L26.39 7.73L26.39 7.73Q26.25 8.19 25.99 8.57L25.99 8.57L25.99 8.57Q25.74 8.94 25.40 9.23L25.40 9.23L25.40 9.23Q25.05 9.52 24.66 9.72L24.66 9.72L24.66 9.72Q24.26 9.92 23.83 10.02L23.83 10.02L23.83 10.02Q23.40 10.12 22.97 10.12L22.97 10.12L22.97 10.12Q22.89 10.12 22.79 10.12L22.79 10.12L22.79 10.12Q22.70 10.12 22.56 10.10L22.56 10.10L22.65 9.07L22.65 9.07Q22.78 9.09 22.87 9.10L22.87 9.10L22.87 9.10Q22.96 9.10 23.04 9.10L23.04 9.10L23.04 9.10Q23.48 9.10 23.87 8.97L23.87 8.97L23.87 8.97Q24.25 8.83 24.54 8.56L24.54 8.56L24.54 8.56Q24.83 8.29 25.00 7.87L25.00 7.87L25.00 7.87Q25.17 7.46 25.17 6.89L25.17 6.89L25.17 6.89Q25.17 6.31 24.99 5.89L24.99 5.89L24.99 5.89Q24.81 5.48 24.47 5.21L24.47 5.21L24.47 5.21Q24.13 4.94 23.64 4.82L23.64 4.82L23.64 4.82Q23.15 4.69 22.54 4.69L22.54 4.69L21.41 4.69ZM33.97 13.64L28.69 13.64L28.69 3.63L30.03 3.63L30.03 12.58L34.17 12.58L33.97 13.64ZM37.55 3.63L37.55 13.64L36.21 13.64L36.21 3.63L37.55 3.63ZM41.87 13.64L40.53 13.64L40.53 3.63L46.40 3.63L46.20 4.69L41.87 4.69L41.87 7.89L45.73 7.89L45.52 8.95L41.87 8.95L41.87 13.64ZM54.39 13.64L53.44 10.92L49.12 10.92L48.19 13.64L46.92 13.64L50.65 3.63L52.07 3.63L55.80 13.64L54.39 13.64ZM49.49 9.88L53.07 9.88L51.74 5.97L51.35 4.57L51.21 4.57L50.83 5.97L49.49 9.88ZM60.49 12.72L60.49 12.72L60.49 12.72Q60.94 12.72 61.33 12.60L61.33 12.60L61.33 12.60Q61.71 12.48 61.98 12.26L61.98 12.26L61.98 12.26Q62.25 12.04 62.41 11.73L62.41 11.73L62.41 11.73Q62.56 11.42 62.56 11.05L62.56 11.05L62.56 11.05Q62.56 10.60 62.35 10.29L62.35 10.29L62.35 10.29Q62.15 9.99 61.81 9.75L61.81 9.75L61.81 9.75Q61.47 9.52 61.03 9.34L61.03 9.34L61.03 9.34Q60.59 9.16 60.14 8.97L60.14 8.97L60.14 8.97Q59.69 8.78 59.25 8.57L59.25 8.57L59.25 8.57Q58.82 8.35 58.48 8.03L58.48 8.03L58.48 8.03Q58.14 7.72 57.93 7.29L57.93 7.29L57.93 7.29Q57.72 6.86 57.72 6.25L57.72 6.25L57.72 6.25Q57.72 5.61 57.97 5.10L57.97 5.10L57.97 5.10Q58.21 4.59 58.66 4.23L58.66 4.23L58.66 4.23Q59.10 3.87 59.70 3.68L59.70 3.68L59.70 3.68Q60.31 3.49 61.03 3.49L61.03 3.49L61.03 3.49Q61.48 3.49 62.15 3.58L62.15 3.58L62.15 3.58Q62.82 3.66 63.57 3.89L63.57 3.89L63.34 5.08L63.21 5.15L63.21 5.15Q62.83 4.98 62.47 4.86L62.47 4.86L62.47 4.86Q62.12 4.74 61.80 4.68L61.80 4.68L61.80 4.68Q61.49 4.61 61.22 4.58L61.22 4.58L61.22 4.58Q60.96 4.55 60.76 4.55L60.76 4.55L60.76 4.55Q60.35 4.55 60.03 4.65L60.03 4.65L60.03 4.65Q59.71 4.75 59.48 4.94L59.48 4.94L59.48 4.94Q59.25 5.13 59.12 5.40L59.12 5.40L59.12 5.40Q58.99 5.67 58.99 6.01L58.99 6.01L58.99 6.01Q58.99 6.47 59.20 6.79L59.20 6.79L59.20 6.79Q59.41 7.11 59.76 7.36L59.76 7.36L59.76 7.36Q60.10 7.60 60.54 7.79L60.54 7.79L60.54 7.79Q60.98 7.98 61.43 8.18L61.43 8.18L61.43 8.18Q61.89 8.37 62.32 8.59L62.32 8.59L62.32 8.59Q62.76 8.80 63.11 9.10L63.11 9.10L63.11 9.10Q63.45 9.39 63.66 9.78L63.66 9.78L63.66 9.78Q63.87 10.18 63.87 10.73L63.87 10.73L63.87 10.73Q63.87 11.34 63.60 11.89L63.60 11.89L63.60 11.89Q63.34 12.44 62.87 12.86L62.87 12.86L62.87 12.86Q62.39 13.28 61.73 13.53L61.73 13.53L61.73 13.53Q61.06 13.78 60.25 13.78L60.25 13.78L60.25 13.78Q59.91 13.78 59.54 13.73L59.54 13.73L59.54 13.73Q59.17 13.69 58.79 13.60L58.79 13.60L58.79 13.60Q58.41 13.51 58.05 13.39L58.05 13.39L58.05 13.39Q57.68 13.27 57.35 13.12L57.35 13.12L57.59 11.92L57.72 11.85L57.72 11.85Q58.42 12.26 59.13 12.49L59.13 12.49L59.13 12.49Q59.85 12.72 60.49 12.72ZM67.71 13.64L66.37 13.64L66.37 3.63L67.71 3.63L67.71 7.89L73.10 7.89L73.10 3.63L74.44 3.63L74.44 13.64L73.10 13.64L73.10 8.95L67.71 8.95L67.71 13.64ZM78.76 3.63L78.76 13.64L77.42 13.64L77.42 3.63L78.76 3.63ZM86.32 12.72L86.32 12.72L86.32 12.72Q87.10 12.72 87.76 12.41L87.76 12.41L87.76 12.41Q88.41 12.09 88.88 11.54L88.88 11.54L88.88 11.54Q89.35 10.99 89.61 10.25L89.61 10.25L89.61 10.25Q89.87 9.52 89.87 8.66L89.87 8.66L89.87 8.66Q89.87 7.77 89.59 7.01L89.59 7.01L89.59 7.01Q89.30 6.25 88.81 5.71L88.81 5.71L88.81 5.71Q88.31 5.16 87.65 4.86L87.65 4.86L87.65 4.86Q86.98 4.55 86.21 4.55L86.21 4.55L86.21 4.55Q85.42 4.55 84.76 4.88L84.76 4.88L84.76 4.88Q84.11 5.20 83.64 5.76L83.64 5.76L83.64 5.76Q83.18 6.31 82.92 7.05L82.92 7.05L82.92 7.05Q82.67 7.79 82.67 8.63L82.67 8.63L82.67 8.63Q82.67 9.53 82.95 10.28L82.95 10.28L82.95 10.28Q83.23 11.03 83.72 11.57L83.72 11.57L83.72 11.57Q84.21 12.11 84.88 12.42L84.88 12.42L84.88 12.42Q85.54 12.72 86.32 12.72ZM86.08 13.78L86.08 13.78L86.08 13.78Q85.13 13.78 84.25 13.44L84.25 13.44L84.25 13.44Q83.38 13.10 82.71 12.46L82.71 12.46L82.71 12.46Q82.04 11.83 81.65 10.92L81.65 10.92L81.65 10.92Q81.26 10.01 81.26 8.89L81.26 8.89L81.26 8.89Q81.26 8.11 81.45 7.41L81.45 7.41L81.45 7.41Q81.65 6.71 82.00 6.11L82.00 6.11L82.00 6.11Q82.35 5.51 82.83 5.02L82.83 5.02L82.83 5.02Q83.31 4.54 83.89 4.20L83.89 4.20L83.89 4.20Q84.47 3.86 85.12 3.68L85.12 3.68L85.12 3.68Q85.78 3.49 86.47 3.49L86.47 3.49L86.47 3.49Q87.10 3.49 87.69 3.64L87.69 3.64L87.69 3.64Q88.29 3.79 88.83 4.08L88.83 4.08L88.83 4.08Q89.37 4.37 89.81 4.79L89.81 4.79L89.81 4.79Q90.26 5.22 90.59 5.76L90.59 5.76L90.59 5.76Q90.92 6.30 91.10 6.96L91.10 6.96L91.10 6.96Q91.28 7.62 91.28 8.38L91.28 8.38L91.28 8.38Q91.28 9.15 91.09 9.86L91.09 9.86L91.09 9.86Q90.90 10.56 90.56 11.16L90.56 11.16L90.56 11.16Q90.21 11.76 89.74 12.24L89.74 12.24L89.74 12.24Q89.26 12.73 88.69 13.07L88.69 13.07L88.69 13.07Q88.11 13.41 87.45 13.60L87.45 13.60L87.45 13.60Q86.79 13.78 86.08 13.78ZM94.94 13.64L93.71 13.64L93.71 3.63L95.66 3.63L100.39 10.47L101.07 11.70L101.21 11.70L101.11 10.30L101.11 3.63L102.33 3.63L102.33 13.64L101.20 13.64L95.59 5.58L94.98 4.39L94.84 4.39L94.94 5.78L94.94 13.64Z"></path></g><!----><g data-v-423bf9ae="" id="c4f5bd03-d487-414c-8630-6cb922fe4cca" transform="matrix(2.8200835519749465,0,0,2.8200835519749465,-14.002772146227699,-95.9630193135128)" stroke="none" fill="black"><path d="M94.697 57.136c-.333-7.9-9.108-9.711-20.192-11.973-2.668-.545-5.526-1.132-8.475-1.844a1.855 1.855 0 0 0-.817-.279 1.896 1.896 0 0 0-.302.005c-6.959-1.746-14.358-4.254-20.972-8.686a1.862 1.862 0 0 0-1.822-.141c-10.173 4.757-17.758 6.612-30.986 3.543-1.32-.309-2.942.033-3.951.829-.762.607-2.18 1.736-2.18 3.398v22.11c0 1.026.832 1.859 1.859 1.858h23.803a1.859 1.859 0 0 0 1.859-1.858v-2.275c4.51 1.404 14.285 4.135 22.023 4.135h38.597a1.858 1.858 0 0 0 1.858-1.859v-5.951c0-.375-.112-.72-.302-1.012zm-3.864-.848H42.017c1.387-3.175 8.577-4.664 13.988-5.776 4.61-.948 8.263-1.7 9.93-3.389 2.721.639 5.354 1.179 7.829 1.685 9.99 2.04 16.03 3.485 17.069 7.48zM8.718 49.482c3.656.355 6.586 3.195 7.097 6.806H8.718v-6.806zm20.084 12.754H8.719v-2.229h20.083v2.229zm-9.238-5.948c-.54-5.662-5.14-10.146-10.847-10.524v-3.565c.176-.219.604-.559.767-.69.14-.094.581-.176.806-.123 13.868 3.215 21.975 1.434 32.457-3.36 5.683 3.643 11.779 5.983 17.675 7.672-1.616.441-3.604.851-5.167 1.173-7.243 1.49-16.148 3.329-17.118 9.418H19.564zm71.717 5.948H54.544c-4.62 0-10.18-1.094-14.706-2.229h51.443v2.229z"></path></g><!----></svg>